Coordinates
version=1
nRows=10
nColumns=40
inDegrees=yes

Units are S.I. units (second, meters, Newtons, ...)
If the header above contains a line with 'inDegrees', this indicates whether rotational values are in degrees (yes) or radians (no).

endheader
time	pelvis_tilt	pelvis_list	pelvis_rotation	pelvis_tx	pelvis_ty	pelvis_tz	hip_flexion_r	hip_adduction_r	hip_rotation_r	knee_angle_r	knee_angle_r_beta	ankle_angle_r	subtalar_angle_r	mtp_angle_r	hip_flexion_l	hip_adduction_l	hip_rotation_l	knee_angle_l	knee_angle_l_beta	ankle_angle_l	subtalar_angle_l	mtp_angle_l	lumbar_extension	lumbar_bending	lumbar_rotation	arm_flex_r	arm_add_r	arm_rot_r	elbow_flex_r	pro_sup_r	wrist_flex_r	wrist_dev_r	arm_flex_l	arm_add_l	arm_rot_l	elbow_flex_l	pro_sup_l	wrist_flex_l	wrist_dev_l
      0.60500000	    -14.74090835	     -0.53875299	     -1.84584395	      0.17348787	      0.73370546	     -1.20553422	     58.23613228	    -35.07436577	    -15.28570254	     72.16082748	      1.25944403	     16.68701271	     -4.33860274	      0.00000000	     58.53663229	    -40.10175296	    -18.08758857	     72.72285214	      1.26925321	     18.16953105	      5.90103173	      0.00000000	     -9.97137099	      0.21095372	     -1.61220315	     44.99736139	    -15.00004573	     44.99736139	     75.00017729	     45.00000026	      0.00000000	      0.00000000	     44.99736139	    -15.00004573	     44.99736139	     75.00017729	     45.00000026	      0.00000000	      0.00000000
      0.61000000	    -14.71026021	     -0.53967303	     -1.77943128	      0.17288859	      0.73121730	     -1.20563109	     58.62143861	    -35.28471668	    -15.08717542	     72.71716394	      1.26915393	     16.82340894	     -4.28107197	      0.00000000	     58.98575404	    -40.21511492	    -17.79340568	     73.26619193	      1.27873628	     18.28531149	      5.91220674	      0.00000000	    -10.27292632	      0.24855837	     -1.63831236	     44.99739062	    -15.00004492	     44.99739062	     75.00017724	     45.00000026	      0.00000000	      0.00000000	     44.99739062	    -15.00004492	     44.99739062	     75.00017724	     45.00000026	      0.00000000	      0.00000000
      0.61500000	    -14.65761859	     -0.54804761	     -1.69775582	      0.17234570	      0.72875595	     -1.20575323	     58.97034473	    -35.50892376	    -14.89890422	     73.28226605	      1.27901683	     16.93280145	     -4.21100777	      0.00000000	     59.41112267	    -40.36081260	    -17.55088083	     73.80442917	      1.28813029	     18.38461616	      5.92907638	      0.00000000	    -10.51812951	      0.28398491	     -1.65973364	     44.99741974	    -15.00004411	     44.99741974	     75.00017720	     45.00000026	      0.00000000	      0.00000000	     44.99741974	    -15.00004411	     44.99741974	     75.00017720	     45.00000026	      0.00000000	      0.00000000
      0.62000000	    -15.24199516	     -0.62718762	     -1.60542755	      0.17137831	      0.72446880	     -1.20584763	     60.11956912	    -35.66070376	    -14.64426941	     74.00870352	      1.29169555	     17.18944872	     -4.10322255	      0.00000000	     60.86365578	    -40.47660184	    -16.84116784	     74.52617790	      1.30072718	     18.54995457	      6.16693542	      0.00000000	     -9.83645285	      0.32492752	     -1.89760267	     44.99745812	    -15.00004304	     44.99745812	     75.00017714	     45.00000026	      0.00000000	      0.00000000	     44.99745812	    -15.00004304	     44.99745812	     75.00017714	     45.00000026	      0.00000000	      0.00000000
      0.62500000	    -15.15456987	     -0.61798210	     -1.51903924	      0.17087744	      0.72210835	     -1.20602658	     60.42176878	    -35.91306461	    -14.46544528	     74.54256487	      1.30101319	     17.39229547	     -3.93716229	      0.00000000	     61.22462342	    -40.58585890	    -16.61249917	     75.05215853	      1.30990728	     18.70628826	      6.41250827	      0.00000000	    -10.16416984	      0.37171636	     -1.93570998	     44.99748736	    -15.00004224	     44.99748736	     75.00017710	     45.00000026	      0.00000000	      0.00000000	     44.99748736	    -15.00004224	     44.99748736	     75.00017710	     45.00000026	      0.00000000	      0.00000000
      0.63000000	    -15.09517729	     -0.60597623	     -1.43691739	      0.17036621	      0.71973591	     -1.20616596	     60.75384618	    -36.14260978	    -14.26138824	     75.06208754	      1.31008057	     17.56279759	     -3.82325200	      0.00000000	     61.61168871	    -40.68114920	    -16.36432916	     75.55665376	      1.31871238	     18.84206174	      6.51344444	      0.00000000	    -10.48167732	      0.40039193	     -1.95839545	     44.99751602	    -15.00004146	     44.99751602	     75.00017706	     45.00000026	      0.00000000	      0.00000000	     44.99751602	    -15.00004146	     44.99751602	     75.00017706	     45.00000026	      0.00000000	      0.00000000
      0.63500000	    -15.14432768	     -0.61862907	     -1.36082711	      0.16984644	      0.71690690	     -1.20628971	     61.23899749	    -36.37482714	    -14.05792320	     75.65417662	      1.32041447	     17.74019731	     -3.58080875	      0.00000000	     62.19567828	    -40.82741862	    -16.05473619	     76.12687184	      1.32866456	     18.96087342	      6.83376450	      0.00000000	    -10.57408349	      0.42983989	     -2.02277905	     44.99754560	    -15.00004066	     44.99754560	     75.00017702	     45.00000026	      0.00000000	      0.00000000	     44.99754560	    -15.00004066	     44.99754560	     75.00017702	     45.00000026	      0.00000000	      0.00000000
      0.64000000	    -15.00018494	     -0.59858465	     -1.28730730	      0.16937461	      0.71475968	     -1.20647028	     61.48257936	    -36.62318087	    -13.87445872	     76.15339873	      1.32912754	     17.71386017	     -3.60281765	      0.00000000	     62.46028919	    -40.91774627	    -15.85840107	     76.62360442	      1.33733418	     18.97260524	      6.56080713	      0.00000000	    -10.95863952	      0.45929425	     -2.02636111	     44.99757283	    -15.00003994	     44.99757283	     75.00017698	     45.00000026	      0.00000000	      0.00000000	     44.99757283	    -15.00003994	     44.99757283	     75.00017698	     45.00000026	      0.00000000	      0.00000000
      0.64500000	    -15.12909005	     -0.60602844	     -1.19892838	      0.16886653	      0.71172908	     -1.20657645	     62.05390008	    -36.83814473	    -13.62238303	     76.74135712	      1.33938935	     18.11423384	     -3.27016937	      0.00000000	     63.14290291	    -41.03702271	    -15.49435150	     77.17667591	      1.34698710	     19.24569800	      7.23439086	      0.00000000	    -10.93898989	      0.48953232	     -2.10566501	     44.99760038	    -15.00003920	     44.99760038	     75.00017695	     45.00000026	      0.00000000	      0.00000000	     44.99760038	    -15.00003920	     44.99760038	     75.00017695	     45.00000026	      0.00000000	      0.00000000
      0.65000000	    -14.96650981	     -0.59444668	     -1.12214385	      0.16844599	      0.70964082	     -1.20674955	     62.26397767	    -37.08408057	    -13.44834604	     77.23280340	      1.34796671	     17.98545923	     -3.31213831	      0.00000000	     63.38722807	    -41.13933095	    -15.32178514	     77.66799729	      1.35556228	     19.18653032	      6.85138279	      0.00000000	    -11.33962157	      0.51808677	     -2.10554772	     44.99762666	    -15.00003851	     44.99762666	     75.00017691	     45.00000026	      0.00000000	      0.00000000	     44.99762666	    -15.00003851	     44.99762666	     75.00017691	     45.00000026	      0.00000000	      0.00000000
